<svg data-icon-name='call-me-back-outlined' width="20" height="20" viewBox="0 0 20 20" fill="none" xmlns="http://www.w3.org/2000/svg">
<path fill-rule="evenodd" clip-rule="evenodd" d="M8.75318 5.89453L4.85866 2L2.72276 4.1359L2.69871 4.16957C1.72521 5.53247 1.19061 8.98968 5.14259 12.9417L7.05504 14.8541C11.007 18.8061 14.4642 18.2715 15.8271 17.298L15.8608 17.2739L17.9967 15.138L14.1022 11.2435L12.4737 12.872C12.3118 13.0339 11.094 13.654 8.71837 11.2783C6.34271 8.90267 6.96278 7.68493 7.12466 7.52305L8.75318 5.89453ZM3.49039 4.78248L4.85866 3.41421L7.33897 5.89453L6.41756 6.81594C5.62321 7.61029 5.54205 9.51622 8.01127 11.9854C10.4805 14.4547 12.3864 14.3735 13.1808 13.5791L14.1022 12.6577L16.5825 15.138L15.2142 16.5063C14.3085 17.1214 11.4162 17.8011 7.76215 14.147L5.84969 12.2346C2.19562 8.58048 2.87533 5.68825 3.49039 4.78248Z" fill="black"/>
<path d="M15.0607 8L12.9142 5.85356L17.9569 5.85356V4.85356L12.9142 4.85356L15.0607 2.70711L14.3536 2L11 5.35355L14.3536 8.70711L15.0607 8Z" fill="black"/>
</svg>
