<svg data-icon-name='pinterest-outlined' width="20" height="20" viewBox="0 0 20 20" fill="none" xmlns="http://www.w3.org/2000/svg">
<path fill-rule="evenodd" clip-rule="evenodd" d="M5.55826 4.62352C4.53105 5.59283 4 6.90403 4 8.2798C4 8.89358 4.17615 9.60038 4.49861 10.2142C4.76665 10.7244 5.11656 11.1353 5.51115 11.3853C5.52157 11.3456 5.53243 11.3042 5.54351 11.2621C5.58999 11.0851 5.64035 10.8933 5.67813 10.7478C5.20258 10.1598 4.86092 9.20528 4.86092 8.31498C4.86092 5.92363 6.79317 3.67022 9.95612 3.67022C11.313 3.67022 12.5021 4.10488 13.3574 4.88608C14.2161 5.67032 14.7088 6.77779 14.7088 8.05593C14.7088 10.7698 13.22 12.9302 11.0084 12.9302C10.381 12.9302 9.80453 12.6858 9.41914 12.2584C9.02741 11.8238 8.85514 11.2215 9.01626 10.5819C9.12489 10.152 9.27296 9.7022 9.4101 9.28569C9.46036 9.13302 9.50917 8.98478 9.55405 8.84355C9.73126 8.2859 9.84466 7.84497 9.84466 7.52344C9.84466 7.24745 9.76577 7.03785 9.64971 6.90488C9.54245 6.78198 9.36449 6.67864 9.05633 6.67864C8.40721 6.67864 7.71502 7.33879 7.71502 8.49727C7.71502 8.86127 7.78052 9.16601 7.84526 9.37779C7.87753 9.48332 7.90921 9.56449 7.93155 9.61683C7.9427 9.64295 7.95145 9.66173 7.95668 9.67261L7.96173 9.68288L7.96111 9.68172C8.01928 9.79118 8.03434 9.91764 8.00404 10.0378L7.47654 12.1321C7.20113 13.2261 6.90302 14.4118 6.81078 14.7835C6.72719 15.1209 6.74404 15.5643 6.80982 16.0599C6.82227 16.1538 6.83614 16.2474 6.85085 16.3404C6.92589 16.2562 7.00109 16.1709 7.07758 16.0815C7.42542 15.6749 7.68176 15.3124 7.76931 14.9966C7.8313 14.7727 7.98994 14.2045 8.13288 13.693L8.40346 12.7251C8.45801 12.5302 8.62485 12.387 8.82589 12.363C9.02694 12.3391 9.22259 12.4387 9.32144 12.6154C9.4216 12.7945 9.65197 13.0089 10.0074 13.1813C10.3549 13.3498 10.7807 13.4573 11.218 13.4573C13.9507 13.4573 16 11.0979 16 8.01595C16 5.19864 13.5451 3 10.2245 3C8.13589 3 6.58394 3.65565 5.55826 4.62352ZM9.13393 13.8263C9.27123 13.9219 9.4185 14.007 9.57102 14.081C10.049 14.3129 10.6235 14.4573 11.218 14.4573C14.627 14.4573 17 11.5174 17 8.01595C17 4.52339 13.9658 2 10.2245 2C7.92074 2 6.11043 2.72754 4.87195 3.89621C3.635 5.06344 3 6.64214 3 8.2798C3 9.0668 3.22091 9.93226 3.61334 10.6793C4.00387 11.4227 4.59234 12.1001 5.3654 12.4375C5.48902 12.4916 5.71917 12.5731 5.96564 12.4815C6.24716 12.3768 6.35117 12.1284 6.39026 11.9775L6.39127 11.9735C6.40742 11.909 6.45433 11.7306 6.50771 11.5275C6.56483 11.3101 6.62936 11.0646 6.67154 10.9004C6.70864 10.7691 6.71034 10.6305 6.67619 10.4981C6.64273 10.3683 6.5767 10.2515 6.48715 10.1566C6.157 9.7753 5.86092 9.02216 5.86092 8.31498C5.86092 6.49281 7.32841 4.67022 9.95612 4.67022C11.1 4.67022 12.0373 5.03468 12.6831 5.62447C13.3255 6.21123 13.7088 7.04662 13.7088 8.05593C13.7088 10.5102 12.4147 11.9302 11.0084 11.9302C10.6372 11.9302 10.3403 11.7867 10.1619 11.5888C9.98976 11.3979 9.90768 11.1371 9.98593 10.8262C10.0853 10.4333 10.216 10.0363 10.3492 9.63153C10.402 9.47113 10.4553 9.3095 10.5071 9.14641C10.6799 8.6027 10.8447 8.02144 10.8447 7.52344C10.8447 7.06627 10.7139 6.60346 10.4031 6.24732C10.0835 5.88111 9.61729 5.67864 9.05633 5.67864C7.6622 5.67864 6.71502 7.00131 6.71502 8.49727C6.71502 8.97997 6.8016 9.38441 6.88896 9.67014C6.92477 9.78731 6.96098 9.88536 6.99197 9.96168L6.50679 11.8879C6.2316 12.9812 5.93288 14.1692 5.84017 14.5428C5.70905 15.0721 5.74966 15.6727 5.81851 16.1915C5.85369 16.4566 5.8987 16.716 5.9393 16.9486L5.94215 16.9649C5.98243 17.1956 6.01697 17.3934 6.03807 17.5621C6.06403 17.7695 6.21634 17.939 6.41989 17.9868C6.62343 18.0346 6.83524 17.9507 6.95083 17.7764C7.0337 17.6515 7.15767 17.5018 7.31844 17.3191C7.37203 17.2582 7.43087 17.1923 7.4923 17.1235C7.60403 16.9985 7.72436 16.8638 7.83748 16.7316C8.18472 16.3256 8.58022 15.8147 8.73296 15.2638C8.79454 15.0414 8.95287 14.4743 9.09598 13.9621L9.13393 13.8263Z" fill="black"/>
</svg>
