<svg data-icon-name='instagram-filled' width="20" height="20" viewBox="0 0 20 20" fill="none" xmlns="http://www.w3.org/2000/svg">
<path fill-rule="evenodd" clip-rule="evenodd" d="M4.52276 2.41154C4.04374 2.59165 3.60926 2.87427 3.24997 3.24027L3.24493 3.2454L3.23981 3.25043C2.87428 3.60942 2.59138 4.04375 2.41079 4.52319L2.40834 4.5297C2.2261 5.00085 2.09134 5.55591 2.05196 6.41654C2.01055 7.33608 2 7.62112 2 10.0053C2 12.39 2.00997 12.6744 2.05194 13.5941C2.09131 14.4555 2.22557 15.0094 2.40838 15.4795L2.41154 15.4878L2.40074 15.4309L2.41568 15.4699C2.59595 15.9559 2.88159 16.3959 3.25206 16.7584C3.61441 17.1288 4.05429 17.4144 4.54012 17.5947C4.93 17.7466 5.47937 17.9053 6.41629 17.9482C7.36179 17.9912 7.65391 18 10.0053 18C12.3566 18 12.649 17.9912 13.5945 17.9482C14.5326 17.9052 15.0813 17.7456 15.4698 17.5949C15.9559 17.4147 16.396 17.129 16.7585 16.7584C17.1289 16.3961 17.4144 15.9562 17.5947 15.4704C17.7466 15.0805 17.9053 14.5312 17.9482 13.5943C17.9912 12.6488 18 12.3561 18 10.0053C18 7.6545 17.9912 7.36155 17.9482 6.41604C17.905 5.47307 17.7439 4.92352 17.5926 4.53467C17.3946 4.02377 17.1437 3.63737 16.7579 3.2516C16.3729 2.86736 15.9875 2.61625 15.4763 2.41814C15.086 2.26557 14.5361 2.10552 13.5945 2.06237L13.3618 2.05194L13.5938 2.05194C12.6742 2.01054 12.3894 2 10.0053 2C7.62112 2 7.33618 2.00997 6.41642 2.05194C5.55508 2.09131 5.0011 2.22557 4.53102 2.40838L4.52276 2.41154ZM14.775 6.40506C15.3277 6.40506 15.7757 5.95701 15.7757 5.40432C15.7757 4.85163 15.3277 4.40359 14.775 4.40359C14.2223 4.40359 13.7742 4.85163 13.7742 5.40432C13.7742 5.95701 14.2223 6.40506 14.775 6.40506ZM10 13.7742C12.0845 13.7742 13.7742 12.0844 13.7742 9.99999C13.7742 7.91554 12.0845 6.22576 10 6.22576C7.91557 6.22576 6.22579 7.91554 6.22579 9.99999C6.22579 12.0844 7.91557 13.7742 10 13.7742Z" fill="black"/>
</svg>
