<svg data-icon-name='google-filled' width="20" height="20" viewBox="0 0 20 20" fill="none" xmlns="http://www.w3.org/2000/svg">
<path fill-rule="evenodd" clip-rule="evenodd" d="M2.87729 6.41234C4.21644 3.80132 6.97074 2 10.1626 2C12.3629 2 14.2146 2.79517 15.6259 4.09143C15.7267 4.18403 15.7849 4.31275 15.7871 4.44815C15.7893 4.58355 15.7354 4.71405 15.6377 4.8098L13.4568 6.94731C13.261 7.13918 12.9448 7.14299 12.7443 6.95589C12.0465 6.30484 11.1667 5.96875 10.1626 5.96875C8.40384 5.96875 6.89698 7.13289 6.35485 8.72687C6.21748 9.13077 6.1387 9.55866 6.1387 10C6.1387 10.4455 6.2125 10.8712 6.3528 11.2672L6.35489 11.2731C6.89701 12.8671 8.40383 14.0312 10.1626 14.0312C11.1001 14.0312 11.8739 13.7827 12.474 13.3909C12.9864 13.0518 13.3715 12.5995 13.6018 12.0688H10.1626C9.88086 12.0688 9.65245 11.8449 9.65245 11.5688V8.75C9.65245 8.47386 9.88086 8.25 10.1626 8.25H17.3687C17.6185 8.25 17.8316 8.4273 17.8721 8.6689C17.9526 9.14896 18 9.64496 18 10.1688C18 12.5711 17.1246 14.6357 15.566 16.0483C14.2016 17.2843 12.3465 18 10.1626 18C6.97077 18 4.21649 16.1987 2.87733 13.5877C2.32019 12.5088 2 11.2944 2 10C2 8.70561 2.32017 7.4913 2.87729 6.41234Z" fill="black"/>
</svg>
