<svg data-icon-name='whatsapp-filled' width="20" height="20" viewBox="0 0 20 20" fill="none" xmlns="http://www.w3.org/2000/svg">
<path fill-rule="evenodd" clip-rule="evenodd" d="M2 18L3.50281 13.5647C2.84412 12.4315 2.46692 11.1159 2.46692 9.71384C2.46692 5.45114 5.94653 2 10.2335 2C14.5211 2 18 5.45117 18 9.71384C18 13.9765 14.5208 17.4276 10.2335 17.4276C8.92358 17.4276 7.68896 17.105 6.60547 16.5356L2 18ZM8.25 6.3746C8.37378 6.62244 8.86914 7.73767 8.9104 7.94421C9.00647 8.23254 8.70386 8.56409 8.47876 8.81058C8.44421 8.84839 8.41162 8.88419 8.38245 8.91754C8.36426 8.93829 8.34753 8.9581 8.33252 8.97684C7.55505 9.75473 10.4253 11.6204 11.0983 11.6204C11.1808 11.6204 11.2633 11.5791 11.3047 11.4965C11.3551 11.4388 11.4078 11.3676 11.4641 11.2918C11.6588 11.0292 11.8943 10.7117 12.2128 10.7117C12.5411 10.7117 13.0039 10.9772 13.4003 11.2046C13.5729 11.3037 13.733 11.3956 13.864 11.4551C14.1595 11.603 13.9342 12.1819 13.8228 12.4052C13.4456 13.1599 12.2875 13.4352 11.5524 13.19C9.35876 12.6209 6.30981 10.5157 6.30981 7.94421C6.30981 7.34222 6.64319 6.53827 7.21802 6.2507C7.44324 6.02533 8.07141 6.10663 8.25 6.3746Z" fill="black"/>
</svg>
