<svg data-icon-name='instagram-outlined' width="20" height="20" viewBox="0 0 20 20" fill="none" xmlns="http://www.w3.org/2000/svg">
<path fill-rule="evenodd" clip-rule="evenodd" d="M10 13C11.6569 13 13 11.6569 13 10C13 8.34315 11.6569 7 10 7C8.34315 7 7 8.34315 7 10C7 11.6569 8.34315 13 10 13ZM10 14C12.2091 14 14 12.2091 14 10C14 7.79086 12.2091 6 10 6C7.79086 6 6 7.79086 6 10C6 12.2091 7.79086 14 10 14Z" fill="black"/>
<path fill-rule="evenodd" clip-rule="evenodd" d="M14 3H6C4.34315 3 3 4.34315 3 6V14C3 15.6569 4.34315 17 6 17H14C15.6569 17 17 15.6569 17 14V6C17 4.34315 15.6569 3 14 3ZM6 2C3.79086 2 2 3.79086 2 6V14C2 16.2091 3.79086 18 6 18H14C16.2091 18 18 16.2091 18 14V6C18 3.79086 16.2091 2 14 2H6Z" fill="black"/>
<path fill-rule="evenodd" clip-rule="evenodd" d="M14.6207 6.32079C14.901 6.32079 15.1282 6.0936 15.1282 5.81335C15.1282 5.5331 14.901 5.30591 14.6207 5.30591C14.3405 5.30591 14.1133 5.5331 14.1133 5.81335C14.1133 6.0936 14.3405 6.32079 14.6207 6.32079ZM14.6207 7.32079C15.4533 7.32079 16.1282 6.64589 16.1282 5.81335C16.1282 4.98082 15.4533 4.30591 14.6207 4.30591C13.7882 4.30591 13.1133 4.98082 13.1133 5.81335C13.1133 6.64589 13.7882 7.32079 14.6207 7.32079Z" fill="black"/>
</svg>
