<svg data-icon-name='facebook-filled' width="20" height="20" viewBox="0 0 20 20" fill="none" xmlns="http://www.w3.org/2000/svg">
<path d="M11.2249 17.9864C15.0617 17.3939 18 14.0618 18 10.04C18 5.59964 14.4183 2 10 2C5.58172 2 2 5.59964 2 10.04C2 14.0938 4.98519 17.4469 8.8668 18V12.2782H7.15087C7.04041 12.2782 6.95087 12.1882 6.95087 12.0772V10.2871C6.95087 10.1761 7.04041 10.0861 7.15087 10.0861H8.8668V8.41533C8.8668 6.51469 9.99334 5.46484 11.717 5.46484C12.5425 5.46484 13.4061 5.61296 13.4061 5.61296V7.47923H12.4546C11.5172 7.47923 11.2249 8.0638 11.2249 8.66353V10.0861H13.0846C13.2072 10.0861 13.3009 10.1958 13.2823 10.3176L13.0091 12.1077C12.9942 12.2058 12.9102 12.2782 12.8114 12.2782H11.2249V17.9864Z" fill="black"/>
</svg>
