<svg data-icon-name='rrss-filled' width="20" height="20" viewBox="0 0 20 20" fill="none" xmlns="http://www.w3.org/2000/svg">
<path fill-rule="evenodd" clip-rule="evenodd" d="M18 14H6L2 18V2H18V14ZM9.2666 5.24225C8.9613 5.08731 8.61584 5 8.25 5C7.00732 5 6 6.00735 6 7.25C6 7.61023 6.08472 7.95068 6.23511 8.25256C7.09241 10.1828 10 12 10 12C10 12 12.9076 10.1828 13.7649 8.25256C13.9153 7.95068 14 7.61023 14 7.25C14 6.00735 12.9927 5 11.75 5C11.3842 5 11.0387 5.08731 10.7334 5.24225C10.6949 5.26172 10.6571 5.28229 10.62 5.30386C10.5281 5.35739 10.4403 5.41727 10.3572 5.48285C10.2925 5.53391 10.2306 5.58847 10.1719 5.64621C10.1111 5.70602 10.0537 5.76929 10 5.83566C9.89441 5.70523 9.77466 5.58682 9.64282 5.48285C9.52625 5.39081 9.40027 5.31003 9.2666 5.24225Z" fill="black"/>
</svg>
