<svg data-icon-name='call-me-back-filled' width="20" height="20" viewBox="0 0 20 20" fill="none" xmlns="http://www.w3.org/2000/svg">
<path fill-rule="evenodd" clip-rule="evenodd" d="M8.75318 5.89453L4.85866 2L2.72276 4.1359L2.69871 4.16957C1.72521 5.53247 1.19061 8.98968 5.14259 12.9417L7.05504 14.8541C11.007 18.8061 14.4642 18.2715 15.8271 17.298L15.8608 17.2739L17.9967 15.138L14.1022 11.2435L12.4737 12.872C12.3118 13.0339 11.094 13.654 8.71837 11.2783C6.34271 8.90267 6.96278 7.68493 7.12466 7.52305L8.75318 5.89453Z" fill="black"/>
<path d="M15.0607 8L12.9142 5.85356L17.9569 5.85356V4.85356L12.9142 4.85356L15.0607 2.70711L14.3536 2L11 5.35355L14.3536 8.70711L15.0607 8Z" fill="black"/>
</svg>
