<svg data-icon-name='pinterest-filled' width="20" height="20" viewBox="0 0 20 20" fill="none" xmlns="http://www.w3.org/2000/svg">
<path fill-rule="evenodd" clip-rule="evenodd" d="M6.99197 9.96168L6.50679 11.8879C6.2316 12.9812 5.93288 14.1692 5.84017 14.5428C5.70905 15.0721 5.74966 15.6727 5.81851 16.1915C5.85369 16.4566 5.8987 16.716 5.9393 16.9486L5.94215 16.9649C5.98243 17.1956 6.01697 17.3934 6.03807 17.5621C6.06403 17.7695 6.21634 17.939 6.41989 17.9868C6.62343 18.0346 6.83524 17.9507 6.95083 17.7764C7.0337 17.6515 7.15767 17.5018 7.31844 17.3191C7.37203 17.2582 7.43087 17.1923 7.49231 17.1235C7.60403 16.9985 7.72437 16.8638 7.83748 16.7316C8.18472 16.3256 8.58022 15.8147 8.73296 15.2637C8.79454 15.0414 8.95287 14.4743 9.09598 13.9621L9.13393 13.8263C9.27123 13.9219 9.4185 14.007 9.57102 14.081C10.049 14.3129 10.6235 14.4573 11.218 14.4573C14.627 14.4573 17 11.5174 17 8.01595C17 4.52339 13.9659 2 10.2245 2C7.92074 2 6.11043 2.72754 4.87195 3.89621C3.635 5.06344 3 6.64214 3 8.2798C3 9.0668 3.22091 9.93226 3.61334 10.6793C4.00387 11.4227 4.59234 12.1001 5.3654 12.4375C5.48902 12.4916 5.71917 12.5731 5.96564 12.4815C6.24716 12.3768 6.35117 12.1284 6.39026 11.9775L6.39127 11.9735C6.40742 11.909 6.45432 11.7306 6.5077 11.5275C6.56483 11.3101 6.62936 11.0646 6.67154 10.9004C6.70864 10.7691 6.71034 10.6305 6.67619 10.4981C6.64273 10.3683 6.5767 10.2515 6.48715 10.1566C6.157 9.7753 5.86092 9.02215 5.86092 8.31498C5.86092 6.49281 7.32841 4.67022 9.95612 4.67022C11.1 4.67022 12.0373 5.03468 12.6831 5.62447C13.3255 6.21123 13.7088 7.04662 13.7088 8.05593C13.7088 10.5102 12.4147 11.9302 11.0084 11.9302C10.6372 11.9302 10.3403 11.7867 10.1619 11.5888C9.98973 11.3978 9.90766 11.137 9.98597 10.8261C10.0853 10.4332 10.216 10.0363 10.3492 9.63153C10.402 9.47113 10.4553 9.3095 10.5071 9.14641C10.6799 8.6027 10.8447 8.02144 10.8447 7.52344C10.8447 7.06627 10.7139 6.60346 10.4031 6.24732C10.0835 5.88111 9.61729 5.67864 9.05633 5.67864C7.6622 5.67864 6.71502 7.00131 6.71502 8.49727C6.71502 8.97997 6.8016 9.38441 6.88896 9.67014C6.92477 9.78731 6.96098 9.88536 6.99197 9.96168Z" fill="black"/>
</svg>
