<svg data-icon-name='refresh' width="20" height="20" viewBox="0 0 20 20" fill="none" xmlns="http://www.w3.org/2000/svg">
<path d="M3 10C3 6.13401 6.13401 3 10 3C12.361 3 14.4494 4.16859 15.7179 5.96088H13.917V6.96088H16.9307V3.94727H15.9307V4.63089C14.4673 3.01556 12.3524 2 10 2C5.58172 2 2 5.58172 2 10H3Z" fill="black"/>
<path d="M17 10C17 13.866 13.866 17 10 17C7.62552 17 5.52652 15.8179 4.26044 14.0084H6.05286L6.05286 13.0084H3.03925L3.03925 13.6902L2.93054 13.7479C2.96587 13.8144 3.00211 13.8803 3.03925 13.9457L3.03925 16.022H4.03925V15.3357C5.50366 16.9705 7.63137 18 10 18C14.4183 18 18 14.4183 18 10H17Z" fill="black"/>
</svg>
