<svg data-icon-name='unlock-outlined' width="20" height="20" viewBox="0 0 20 20" fill="none" xmlns="http://www.w3.org/2000/svg">
<path fill-rule="evenodd" clip-rule="evenodd" d="M15 9H5V17H15V9ZM4 8V18H16V8H4Z" fill="black"/>
<path fill-rule="evenodd" clip-rule="evenodd" d="M3.60163 3.56474C3.25643 3.94317 3 4.56919 3 5.54037V5.98333H2V5.54037C2 4.39846 2.30321 3.5043 2.86283 2.89081C3.42614 2.27328 4.19498 2 5 2C5.80502 2 6.57386 2.27328 7.13717 2.89081C7.69679 3.5043 8 4.39846 8 5.54037V8H7V5.54037C7 4.56919 6.74357 3.94317 6.39837 3.56474C6.05686 3.19036 5.57569 3 5 3C4.42431 3 3.94314 3.19036 3.60163 3.56474Z" fill="black"/>
</svg>
