<svg data-icon-name='search' width="20" height="20" viewBox="0 0 20 20" fill="none" xmlns="http://www.w3.org/2000/svg">
<path fill-rule="evenodd" clip-rule="evenodd" d="M13.3209 14.5077C12.131 15.4425 10.6306 16 9 16C5.13401 16 2 12.866 2 9C2 5.13401 5.13401 2 9 2C12.866 2 16 5.13401 16 9C16 10.8732 15.2642 12.5745 14.0659 13.8308L17.8293 17.1237L17.1707 17.8763L13.3209 14.5077ZM15 9C15 12.3137 12.3137 15 9 15C5.68629 15 3 12.3137 3 9C3 5.68629 5.68629 3 9 3C12.3137 3 15 5.68629 15 9Z" fill="black"/>
</svg>
