<svg data-icon-name='excel-download' width="20" height="20" viewBox="0 0 20 20" fill="none" xmlns="http://www.w3.org/2000/svg">
<path d="M5 15H12V16H4V2H10.4167L15 5.9375V12H14V6.39676L10.0461 3H5V15Z" fill="black"/>
<path d="M8.75926 7H7.09259L8.43519 9.45536L7 12H8.66667L9.5 10.5268L10.287 12H12L10.5648 9.45536L11.9074 7H10.2407L9.5 8.38393L8.75926 7Z" fill="black"/>
<path d="M14.0367 16.1688L13.1746 15.3066L12.4675 16.0137L14.5 18.0463L16.5326 16.0137L15.8255 15.3066L15.036 16.0962L15 12.9761L14.0001 12.9876L14.0367 16.1688Z" fill="black"/>
</svg>
