<svg data-icon-name='move' width="20" height="20" viewBox="0 0 20 20" fill="none" xmlns="http://www.w3.org/2000/svg">
<path fill-rule="evenodd" clip-rule="evenodd" d="M16.0895 9.5019L14.6097 8.02209L15.3168 7.31498L18.0037 10.0019L15.3168 12.6888L14.6097 11.9816L16.0894 10.5019L10.5018 10.5019L10.5018 16.0895L11.9816 14.6098L12.6887 15.3169L10.0018 18.0037L7.31491 15.3169L8.02201 14.6098L9.50179 16.0895L9.50179 10.5019L3.91428 10.5019L5.394 11.9816L4.68689 12.6887L2.00001 10.0018L4.68689 7.31496L5.394 8.02207L3.91416 9.5019L9.50179 9.5019L9.50179 3.91421L8.02201 5.39399L7.3149 4.68689L10.0018 2L12.6887 4.68689L11.9816 5.39399L10.5018 3.91421L10.5018 9.5019L16.0895 9.5019Z" fill="black"/>
</svg>
