<svg data-icon-name='collapse-all-outlined' width="20" height="20" viewBox="0 0 20 20" fill="none" xmlns="http://www.w3.org/2000/svg">
<path fill-rule="evenodd" clip-rule="evenodd" d="M10 3.125C11.3117 3.125 12.375 4.18832 12.375 5.5C12.375 6.81168 11.3117 7.875 10 7.875C8.85984 7.875 7.90734 7.07158 7.67772 6H5V14H7.67772C7.90734 12.9284 8.85984 12.125 10 12.125C11.1402 12.125 12.0927 12.9284 12.3223 14H15V9.20705L13.8535 10.3535L13.1464 9.64641L15.5 7.29286L17.8535 9.64641L17.1464 10.3535L16 9.20709V15H12.3223C12.0927 16.0716 11.1402 16.875 10 16.875C8.85984 16.875 7.90734 16.0716 7.67772 15H4V5H7.67772C7.90734 3.92842 8.85984 3.125 10 3.125ZM11.375 5.5C11.375 4.74061 10.7594 4.125 10 4.125C9.24061 4.125 8.625 4.74061 8.625 5.5C8.625 6.25939 9.24061 6.875 10 6.875C10.7594 6.875 11.375 6.25939 11.375 5.5ZM11.375 14.5C11.375 13.7406 10.7594 13.125 10 13.125C9.24061 13.125 8.625 13.7406 8.625 14.5C8.625 15.2594 9.24061 15.875 10 15.875C10.7594 15.875 11.375 15.2594 11.375 14.5Z" fill="black"/>
</svg>
