<svg data-icon-name='symbols' width="20" height="20" viewBox="0 0 20 20" fill="none" xmlns="http://www.w3.org/2000/svg">
<path d="M18 9.99732C18 13.0123 16.3316 15.6376 13.8676 17.0003H18V18H13.0017V16.3215C15.3658 15.1984 17.0003 12.7887 17.0003 9.99732C17.0003 6.13262 13.8673 2.99966 10.0026 2.99966C6.13781 2.99966 3.0048 6.13262 3.0048 9.99732C3.0048 12.7888 4.63933 15.1985 7.00352 16.3216V18H2V17.0003H6.13749C3.67354 15.6376 2.00513 13.0123 2.00513 9.99732C2.00513 5.58052 5.5857 2 10.0026 2C14.4194 2 18 5.58052 18 9.99732Z" fill="black"/>
</svg>
