<svg data-icon-name='compare-to-excel' width="20" height="20" viewBox="0 0 20 20" fill="none" xmlns="http://www.w3.org/2000/svg">
<path d="M16.4951 5.9375V16H9.5V15H15.4951V6.39676L11.5412 3H6.49512V8H5.49512V2H11.9118L16.4951 5.9375Z" fill="black"/>
<path d="M11.2568 8.55002H9.59011L10.9327 11.0054L9.49752 13.55H11.1642L11.9975 12.0768L12.7846 13.55H14.4975L13.0623 11.0054L14.4049 8.55002H12.7383L11.9975 9.93395L11.2568 8.55002Z" fill="black"/>
<path d="M6.23967 16.8042L5.41419 16H8.5V15H5.41424L6.23967 14.1958L5.53257 13.5L3.5 15.5L5.53257 17.5L6.23967 16.8042Z" fill="black"/>
<path d="M6.58581 10.5L5.76033 9.69578L6.46743 9L8.5 11L6.46743 13L5.76033 12.3042L6.58576 11.5H3.5V10.5H6.58581Z" fill="black"/>
</svg>
