<svg data-icon-name='collapse-one-outlined' width="20" height="20" viewBox="0 0 20 20" fill="none" xmlns="http://www.w3.org/2000/svg">
<path d="M12.0042 6.20706L10.8577 7.35351L10.1506 6.6464L12.5041 4.29285L14.8577 6.6464L14.1506 7.35351L13.0042 6.20706V15H9.00415V14H12.0042V6.20706Z" fill="black"/>
<path fill-rule="evenodd" clip-rule="evenodd" d="M7.00415 7.5C8.31583 7.5 9.37915 8.56332 9.37915 9.875C9.37915 11.1867 8.31583 12.25 7.00415 12.25C5.69247 12.25 4.62915 11.1867 4.62915 9.875C4.62915 8.56332 5.69247 7.5 7.00415 7.5ZM8.37915 9.875C8.37915 9.11561 7.76354 8.5 7.00415 8.5C6.24476 8.5 5.62915 9.11561 5.62915 9.875C5.62915 10.6344 6.24476 11.25 7.00415 11.25C7.76354 11.25 8.37915 10.6344 8.37915 9.875Z" fill="black"/>
</svg>
