<svg data-icon-name='mass-edit-outlined' width="20" height="20" viewBox="0 0 20 20" fill="none" xmlns="http://www.w3.org/2000/svg">
<path fill-rule="evenodd" clip-rule="evenodd" d="M3 4C3 4.55228 3.44772 5 4 5C4.55228 5 5 4.55228 5 4C5 3.44772 4.55228 3 4 3C3.44772 3 3 3.44772 3 4ZM4 2C2.89543 2 2 2.89543 2 4C2 5.10457 2.89543 6 4 6C5.10457 6 6 5.10457 6 4C6 2.89543 5.10457 2 4 2ZM3 10C3 10.5523 3.44772 11 4 11C4.55228 11 5 10.5523 5 10C5 9.44772 4.55228 9 4 9C3.44772 9 3 9.44772 3 10ZM4 8C2.89543 8 2 8.89543 2 10C2 11.1046 2.89543 12 4 12C5.10457 12 6 11.1046 6 10C6 8.89543 5.10457 8 4 8ZM4 17C3.44772 17 3 16.5523 3 16C3 15.4477 3.44772 15 4 15C4.55228 15 5 15.4477 5 16C5 16.5523 4.55228 17 4 17ZM2 16C2 14.8954 2.89543 14 4 14C5.10457 14 6 14.8954 6 16C6 17.1046 5.10457 18 4 18C2.89543 18 2 17.1046 2 16ZM17 3H15V5H17V3ZM15 2H14V3V5V6H15H17H18V5V3V2H17H15ZM15 9H17V11H15V9ZM14 8H15H17H18V9V11V12H17H15H14V11V9V8ZM17 15H15V17H17V15ZM15 14H14V15V17V18H15H17H18V17V15V14H17H15ZM12.5755 9.67678L10.8815 7.67684L10.1185 8.32316L11.1152 9.49994H7V10.4999H11.1152L10.1185 11.6769L10.8815 12.3231L12.5755 10.3231L12.8492 9.99993L12.5755 9.67678Z" fill="black"/>
</svg>
