<svg data-icon-name='icon-bottom-filled' width="20" height="20" viewBox="0 0 20 20" fill="none" xmlns="http://www.w3.org/2000/svg">
<path fill-rule="evenodd" clip-rule="evenodd" d="M14 14.5C14 16.7091 12.2091 18.5 10 18.5C7.79086 18.5 6 16.7091 6 14.5C6 12.2909 7.79086 10.5 10 10.5C12.2091 10.5 14 12.2909 14 14.5ZM9 14.5C9 15.0523 9.44772 15.5 10 15.5C10.5523 15.5 11 15.0523 11 14.5H12C12 15.6046 11.1046 16.5 10 16.5C8.89543 16.5 8 15.6046 8 14.5H9Z" fill="black"/>
<path fill-rule="evenodd" clip-rule="evenodd" d="M6 9.5H7L7.85714 7.5H12.1429L13 9.5H14L10.5 1.5H9.5L6 9.5ZM11.7143 6.5L10 2.5L8.28571 6.5H11.7143Z" fill="black"/>
</svg>
