<svg data-icon-name='help-outlined' width="20" height="20" viewBox="0 0 20 20" fill="none" xmlns="http://www.w3.org/2000/svg">
<path d="M7.54541 7.80816H8.31523C8.39221 6.84082 9.04952 6.22857 9.99699 6.22857C10.9504 6.22857 11.6195 6.85918 11.6195 7.72857C11.6195 8.40204 11.3412 8.82449 10.5951 9.32653C9.76013 9.87755 9.41667 10.3918 9.42259 11.2061V11.7816H10.2102V11.3224C10.2102 10.6429 10.4293 10.2939 11.205 9.77959C12.0163 9.24082 12.4545 8.59796 12.4545 7.69184C12.4545 6.44286 11.4537 5.5 10.0266 5.5C8.4988 5.5 7.61055 6.5102 7.54541 7.80816Z" fill="black"/>
<path d="M9.8904 14.5C10.2753 14.5 10.5477 14.2122 10.5477 13.8143C10.5477 13.4102 10.2753 13.1224 9.8904 13.1224C9.49957 13.1224 9.22717 13.4102 9.22717 13.8143C9.22717 14.2122 9.49957 14.5 9.8904 14.5Z" fill="black"/>
<path fill-rule="evenodd" clip-rule="evenodd" d="M18 10C18 14.4183 14.4183 18 10 18C5.58172 18 2 14.4183 2 10C2 5.58172 5.58172 2 10 2C14.4183 2 18 5.58172 18 10ZM17 10C17 13.866 13.866 17 10 17C6.13401 17 3 13.866 3 10C3 6.13401 6.13401 3 10 3C13.866 3 17 6.13401 17 10Z" fill="black"/>
</svg>
