<svg data-icon-name='cloud-download-outlined' width="20" height="20" viewBox="0 0 20 20" fill="none" xmlns="http://www.w3.org/2000/svg">
<path d="M10 12.9787L12.5537 10.4249L11.8466 9.71783L10.4879 11.0766V7H9.48787L9.48787 11.0523L8.08186 9.6463L7.37476 10.3534L10 12.9787Z" fill="black"/>
<path fill-rule="evenodd" clip-rule="evenodd" d="M5.69231 7.15373C3.6531 7.15373 2 8.80684 2 10.846C2 12.8852 3.6531 14.5383 5.69231 14.5383H13.6923L13.7666 14.5377C16.1114 14.4981 18 12.5849 18 10.2307C18 7.85158 16.0714 5.92296 13.6923 5.92296C13.4189 5.92296 13.1514 5.94844 12.8922 5.99714C12.4068 4.52444 11.0199 3.46143 9.38462 3.46143C7.34541 3.46143 5.69231 5.11453 5.69231 7.15373ZM13.7537 13.5378C15.552 13.5052 17 12.037 17 10.2307C17 8.40387 15.5191 6.92296 13.6923 6.92296C13.4811 6.92296 13.2755 6.94263 13.0768 6.97995L12.2164 7.14157L11.9424 6.31014C11.5881 5.23521 10.5754 4.46143 9.38462 4.46143C7.8977 4.46143 6.69231 5.66681 6.69231 7.15373V8.15373H5.69231C4.20539 8.15373 3 9.35912 3 10.846C3 12.333 4.20539 13.5383 5.69231 13.5383H13.6881L13.7537 13.5378Z" fill="black"/>
</svg>
