<svg data-icon-name='collapse-all-filled' width="20" height="20" viewBox="0 0 20 20" fill="none" xmlns="http://www.w3.org/2000/svg">
<path d="M10 3.125C11.3117 3.125 12.375 4.18832 12.375 5.5C12.375 6.81168 11.3117 7.875 10 7.875C8.85984 7.875 7.90734 7.07158 7.67772 6H5V14H7.67772C7.90734 12.9284 8.85984 12.125 10 12.125C11.1402 12.125 12.0927 12.9284 12.3223 14H15V9.20705L13.8535 10.3535L13.1464 9.64641L15.5 7.29286L17.8535 9.64641L17.1464 10.3535L16 9.20709V15H12.3223C12.0927 16.0716 11.1402 16.875 10 16.875C8.85984 16.875 7.90734 16.0716 7.67772 15H4V5H7.67772C7.90734 3.92842 8.85984 3.125 10 3.125Z" fill="black"/>
</svg>
