<svg data-icon-name='filter-outlined' width="20" height="20" viewBox="0 0 20 20" fill="none" xmlns="http://www.w3.org/2000/svg">
<path fill-rule="evenodd" clip-rule="evenodd" d="M15 5.5C15.9319 5.5 16.715 6.13739 16.937 7H19V8H16.937C16.715 8.86261 15.9319 9.5 15 9.5C14.0681 9.5 13.285 8.86261 13.063 8H1V7H13.063C13.285 6.13739 14.0681 5.5 15 5.5ZM15 8.5C15.5523 8.5 16 8.05228 16 7.5C16 6.94772 15.5523 6.5 15 6.5C14.4477 6.5 14 6.94772 14 7.5C14 8.05228 14.4477 8.5 15 8.5Z" fill="black"/>
<path fill-rule="evenodd" clip-rule="evenodd" d="M6.93699 12C6.71497 11.1374 5.93192 10.5 5 10.5C4.06808 10.5 3.28503 11.1374 3.06301 12H1V13H3.06301C3.28503 13.8626 4.06808 14.5 5 14.5C5.93192 14.5 6.71497 13.8626 6.93699 13H19V12H6.93699ZM4 12.5C4 13.0523 4.44772 13.5 5 13.5C5.55228 13.5 6 13.0523 6 12.5C6 11.9477 5.55228 11.5 5 11.5C4.44772 11.5 4 11.9477 4 12.5Z" fill="black"/>
</svg>
