<svg data-icon-name='numbers' width="20" height="20" viewBox="0 0 20 20" fill="none" xmlns="http://www.w3.org/2000/svg">
<path d="M5.12927 6.13672V14H4.13562V7.37744L2.1322 8.10791V7.21094L4.97351 6.13672H5.12927Z" fill="black"/>
<path d="M12.1852 13.1836V14H7.06652V13.2856L9.62853 10.4336C9.94363 10.0827 10.1871 9.78548 10.359 9.54199C10.5345 9.29492 10.6562 9.07471 10.7242 8.88135C10.7958 8.68441 10.8317 8.48389 10.8317 8.27979C10.8317 8.02197 10.7779 7.78923 10.6705 7.58154C10.5667 7.37028 10.4127 7.20199 10.2086 7.07666C10.0045 6.95133 9.75744 6.88867 9.4674 6.88867C9.12007 6.88867 8.83003 6.95671 8.59728 7.09277C8.36811 7.22526 8.19624 7.41146 8.08166 7.65137C7.96707 7.89128 7.90978 8.16699 7.90978 8.47852H6.91613C6.91613 8.03809 7.01281 7.63525 7.20617 7.27002C7.39953 6.90479 7.68599 6.61475 8.06554 6.3999C8.4451 6.18148 8.91238 6.07227 9.4674 6.07227C9.96154 6.07227 10.3841 6.15999 10.735 6.33545C11.0859 6.50732 11.3544 6.75081 11.5406 7.06592C11.7304 7.37744 11.8253 7.74268 11.8253 8.16162C11.8253 8.39079 11.7859 8.62354 11.7071 8.85986C11.6319 9.09261 11.5263 9.32536 11.3902 9.55811C11.2578 9.79085 11.102 10.02 10.923 10.2456C10.7475 10.4712 10.5595 10.6932 10.359 10.9116L8.26427 13.1836H12.1852Z" fill="black"/>
<path d="M14.6988 9.60107H15.4078C15.7552 9.60107 16.0416 9.54378 16.2672 9.4292C16.4964 9.31104 16.6665 9.15169 16.7775 8.95117C16.892 8.74707 16.9493 8.5179 16.9493 8.26367C16.9493 7.96289 16.8992 7.71045 16.7989 7.50635C16.6987 7.30225 16.5483 7.14827 16.3478 7.04443C16.1472 6.94059 15.893 6.88867 15.5851 6.88867C15.3058 6.88867 15.0587 6.94417 14.8439 7.05518C14.6326 7.1626 14.4661 7.31657 14.3444 7.51709C14.2262 7.71761 14.1671 7.95394 14.1671 8.22607H13.1735C13.1735 7.82861 13.2737 7.46696 13.4742 7.14111C13.6748 6.81527 13.9558 6.55566 14.3175 6.3623C14.6827 6.16895 15.1053 6.07227 15.5851 6.07227C16.0577 6.07227 16.4713 6.15641 16.8258 6.32471C17.1803 6.48942 17.456 6.73649 17.6529 7.06592C17.8499 7.39176 17.9484 7.79818 17.9484 8.28516C17.9484 8.4821 17.9018 8.69336 17.8087 8.91895C17.7192 9.14095 17.5778 9.34863 17.3844 9.54199C17.1946 9.73535 16.9475 9.89469 16.6432 10.02C16.3388 10.1418 15.9736 10.2026 15.5475 10.2026H14.6988V9.60107ZM14.6988 10.4175V9.82129H15.5475C16.0452 9.82129 16.457 9.88037 16.7828 9.99854C17.1087 10.1167 17.3647 10.2743 17.5509 10.4712C17.7407 10.6681 17.8732 10.8848 17.9484 11.1211C18.0271 11.3538 18.0665 11.5866 18.0665 11.8193C18.0665 12.1846 18.0039 12.5086 17.8785 12.7915C17.7568 13.0744 17.5831 13.3143 17.3575 13.5112C17.1355 13.7082 16.8741 13.8568 16.5734 13.957C16.2726 14.0573 15.9449 14.1074 15.5904 14.1074C15.2503 14.1074 14.9298 14.0591 14.629 13.9624C14.3318 13.8657 14.0686 13.7261 13.8395 13.5435C13.6103 13.3573 13.4313 13.1299 13.3024 12.8613C13.1735 12.5892 13.109 12.2795 13.109 11.9321H14.1027C14.1027 12.2043 14.1617 12.4424 14.2799 12.6465C14.4016 12.8506 14.5735 13.0099 14.7955 13.1245C15.0211 13.2355 15.2861 13.291 15.5904 13.291C15.8948 13.291 16.1562 13.2391 16.3746 13.1353C16.5966 13.0278 16.7667 12.8667 16.8849 12.6519C17.0066 12.437 17.0675 12.1667 17.0675 11.8408C17.0675 11.515 16.9995 11.2482 16.8634 11.0405C16.7273 10.8293 16.534 10.6735 16.2833 10.5732C16.0362 10.4694 15.7444 10.4175 15.4078 10.4175H14.6988Z" fill="black"/>
</svg>
