<svg data-icon-name='expand-one-outlined' width="20" height="20" viewBox="0 0 20 20" fill="none" xmlns="http://www.w3.org/2000/svg">
<path fill-rule="evenodd" clip-rule="evenodd" d="M15.75 5.375C15.75 4.06332 14.6867 3 13.375 3C12.1693 3 11.1734 3.89851 11.0204 5.0625H4V6.0625H7.125V15H11.0831C11.3575 16.0085 12.2796 16.75 13.375 16.75C14.6867 16.75 15.75 15.6867 15.75 14.375C15.75 13.0633 14.6867 12 13.375 12C12.1909 12 11.2092 12.8665 11.0294 14H8.125V6.0625H11.101C11.3958 7.03895 12.3024 7.75 13.375 7.75C14.6867 7.75 15.75 6.68668 15.75 5.375ZM13.375 4C14.1344 4 14.75 4.61561 14.75 5.375C14.75 6.13439 14.1344 6.75 13.375 6.75C12.6156 6.75 12 6.13439 12 5.375C12 4.61561 12.6156 4 13.375 4ZM13.375 13C14.1344 13 14.75 13.6156 14.75 14.375C14.75 15.1344 14.1344 15.75 13.375 15.75C12.6156 15.75 12 15.1344 12 14.375C12 13.6156 12.6156 13 13.375 13Z" fill="black"/>
</svg>
