<svg data-icon-name='restart' width="20" height="20" viewBox="0 0 20 20" fill="none" xmlns="http://www.w3.org/2000/svg">
<path d="M3 10C3 6.13401 6.13401 3 10 3C11.2781 3 12.4748 3.3421 13.5052 3.93939C14.0418 4.25044 14.5334 4.63079 14.9676 5.06822H13.4421V6.06822H16.5938V2.91656H15.5938V4.28073C15.1186 3.81596 14.5857 3.40988 14.0067 3.07425C12.8281 2.39099 11.4589 2 10 2C5.58172 2 2 5.58172 2 10C2 14.4183 5.58172 18 10 18C14.4183 18 18 14.4183 18 10C18 9.65219 17.9778 9.30934 17.9346 8.97282L16.9427 9.10003C16.9805 9.39447 17 9.69484 17 10C17 13.866 13.866 17 10 17C6.13401 17 3 13.866 3 10Z" fill="black"/>
</svg>
