<svg data-icon-name='expand-one-filled' width="20" height="20" viewBox="0 0 20 20" fill="none" xmlns="http://www.w3.org/2000/svg">
<path d="M15.75 5.375C15.75 4.06332 14.6867 3 13.375 3C12.1693 3 11.1734 3.89851 11.0204 5.0625H4V6.0625H7.125V15H11.0831C11.3575 16.0085 12.2796 16.75 13.375 16.75C14.6867 16.75 15.75 15.6867 15.75 14.375C15.75 13.0633 14.6867 12 13.375 12C12.1909 12 11.2092 12.8665 11.0294 14H8.125V6.0625H11.101C11.3958 7.03895 12.3024 7.75 13.375 7.75C14.6867 7.75 15.75 6.68668 15.75 5.375Z" fill="black"/>
</svg>
