<svg data-icon-name='cloud-upload-filled' width="20" height="20" viewBox="0 0 20 20" fill="none" xmlns="http://www.w3.org/2000/svg">
<path fill-rule="evenodd" clip-rule="evenodd" d="M5.69231 14.5383H13.6923L13.7666 14.5377C16.1114 14.4981 18 12.5849 18 10.2307C18 7.85158 16.0714 5.92296 13.6923 5.92296C13.4189 5.92296 13.1514 5.94844 12.8922 5.99714C12.4068 4.52444 11.0199 3.46143 9.38462 3.46143C7.34541 3.46143 5.69231 5.11453 5.69231 7.15373C3.6531 7.15373 2 8.80684 2 10.846C2 12.8852 3.6531 14.5383 5.69231 14.5383ZM8.35337 10.1536L9.5 9.00699L9.5 12.78H10.5V9.00698L11.6466 10.1536L12.3537 9.44651L10 7.09277L7.64626 9.44651L8.35337 10.1536Z" fill="black"/>
</svg>
