<svg data-icon-name='arrown-circle-down-outlined' width="20" height="20" viewBox="0 0 20 20" fill="none" xmlns="http://www.w3.org/2000/svg">
<path d="M12.6464 10.6464L10.5 12.7929L10.5 5H9.49996L9.49996 12.7929L7.35352 10.6464L6.64641 11.3536L9.99996 14.7071L13.3535 11.3536L12.6464 10.6464Z" fill="black"/>
<path fill-rule="evenodd" clip-rule="evenodd" d="M18 10C18 14.4183 14.4183 18 10 18C5.58172 18 2 14.4183 2 10C2 5.58172 5.58172 2 10 2C14.4183 2 18 5.58172 18 10ZM17 10C17 13.866 13.866 17 10 17C6.13401 17 3 13.866 3 10C3 6.13401 6.13401 3 10 3C13.866 3 17 6.13401 17 10Z" fill="black"/>
</svg>
