<svg data-icon-name='warning-outlined' width="20" height="20" viewBox="0 0 20 20" fill="none" xmlns="http://www.w3.org/2000/svg">
<path d="M10.6435 5L9.35611 5L9.35611 11.2867H10.6435V5Z" fill="black"/>
<path d="M9.99982 12.3778C9.54862 12.3778 9.18164 12.7415 9.18164 13.186C9.18164 13.6363 9.54862 14 9.99982 14C10.451 14 10.818 13.6363 10.818 13.186C10.818 12.7415 10.451 12.3778 9.99982 12.3778Z" fill="black"/>
<path fill-rule="evenodd" clip-rule="evenodd" d="M18 10C18 14.4183 14.4183 18 10 18C5.58172 18 2 14.4183 2 10C2 5.58172 5.58172 2 10 2C14.4183 2 18 5.58172 18 10ZM17 10C17 13.866 13.866 17 10 17C6.13401 17 3 13.866 3 10C3 6.13401 6.13401 3 10 3C13.866 3 17 6.13401 17 10Z" fill="black"/>
</svg>
