<svg data-icon-name='information-outlined' width="20" height="20" viewBox="0 0 20 20" fill="none" xmlns="http://www.w3.org/2000/svg">
<path d="M10.6438 7.71328V14H9.35635V7.71328H10.6438Z" fill="black"/>
<path d="M10.8182 5.81398C10.8182 6.2585 10.4513 6.62219 10.0001 6.62219C9.54886 6.62219 9.18188 6.2585 9.18188 5.81398C9.18188 5.36369 9.54886 5 10.0001 5C10.4513 5 10.8182 5.36369 10.8182 5.81398Z" fill="black"/>
<path fill-rule="evenodd" clip-rule="evenodd" d="M18 10C18 14.4183 14.4183 18 10 18C5.58172 18 2 14.4183 2 10C2 5.58172 5.58172 2 10 2C14.4183 2 18 5.58172 18 10ZM17 10C17 13.866 13.866 17 10 17C6.13401 17 3 13.866 3 10C3 6.13401 6.13401 3 10 3C13.866 3 17 6.13401 17 10Z" fill="black"/>
</svg>
