<svg data-icon-name='information-filled' width="20" height="20" viewBox="0 0 20 20" fill="none" xmlns="http://www.w3.org/2000/svg">
<path fill-rule="evenodd" clip-rule="evenodd" d="M18 10C18 14.4183 14.4183 18 10 18C5.58172 18 2 14.4183 2 10C2 5.58172 5.58172 2 10 2C14.4183 2 18 5.58172 18 10ZM10.6438 8.07583V14.3625H9.35635V8.07583H10.6438ZM10.8182 6.17653C10.8182 6.62105 10.4513 6.98474 10.0001 6.98474C9.54886 6.98474 9.18188 6.62105 9.18188 6.17653C9.18188 5.72624 9.54886 5.36255 10.0001 5.36255C10.4513 5.36255 10.8182 5.72624 10.8182 6.17653Z" fill="black"/>
</svg>
